<?xml version="1.0" encoding="UTF-8" standalone="no"?>
<svg
   xmlns:dc="http://purl.org/dc/elements/1.1/"
   xmlns:cc="http://creativecommons.org/ns#"
   xmlns:rdf="http://www.w3.org/1999/02/22-rdf-syntax-ns#"
   xmlns:svg="http://www.w3.org/2000/svg"
   xmlns="http://www.w3.org/2000/svg"
   xmlns:sodipodi="http://sodipodi.sourceforge.net/DTD/sodipodi-0.dtd"
   xmlns:inkscape="http://www.inkscape.org/namespaces/inkscape"
   viewBox="0 0 24.062501 24.062501"
   version="1.1"
   width="92.54808"
   height="92.54808"
   id="svg867"
   sodipodi:docname="settings-grey.svg"
   inkscape:version="0.92.2 2405546, 2018-03-11">
  <metadata
     id="metadata873">
    <rdf:RDF>
      <cc:Work
         rdf:about="">
        <dc:format>image/svg+xml</dc:format>
        <dc:type
           rdf:resource="http://purl.org/dc/dcmitype/StillImage" />
        <dc:title></dc:title>
      </cc:Work>
    </rdf:RDF>
  </metadata>
  <defs
     id="defs871" />
  <sodipodi:namedview
     pagecolor="#ffffff"
     bordercolor="#666666"
     borderopacity="1"
     objecttolerance="10"
     gridtolerance="10"
     guidetolerance="10"
     inkscape:pageopacity="0"
     inkscape:pageshadow="2"
     inkscape:window-width="1920"
     inkscape:window-height="1055"
     id="namedview869"
     showgrid="false"
     inkscape:zoom="8.64"
     inkscape:cx="46.274038"
     inkscape:cy="46.274038"
     inkscape:window-x="0"
     inkscape:window-y="0"
     inkscape:window-maximized="0"
     inkscape:current-layer="svg867" />
  <g
     id="surface1"
     style="fill:#7b7b7b;fill-opacity:1"
     transform="translate(-0.96875,-0.96875)">
    <path
       style="fill:#7b7b7b;fill-opacity:1"
       d="m 11.46875,0.96875 -0.5625,3.5625 C 10.050781,4.742188 9.234375,5.058594 8.5,5.5 L 5.5625,3.40625 3.4375,5.53125 5.5,8.46875 C 5.054688,9.207031 4.714844,10.015625 4.5,10.875 l -3.53125,0.59375 v 3 L 4.5,15.09375 c 0.214844,0.859375 0.554688,1.667969 1,2.40625 l -2.09375,2.9375 2.125,2.125 2.9375,-2.0625 c 0.734375,0.441406 1.550781,0.757813 2.40625,0.96875 l 0.59375,3.5625 h 3 l 0.65625,-3.5625 c 0.851563,-0.214844 1.644531,-0.554687 2.375,-1 l 2.96875,2.09375 2.125,-2.125 -2.125,-2.9375 c 0.4375,-0.730469 0.789063,-1.527344 1,-2.375 l 3.5625,-0.65625 v -3 L 21.46875,10.875 c -0.210937,-0.847656 -0.5625,-1.644531 -1,-2.375 l 2.09375,-2.96875 -2.125,-2.125 -2.9375,2.125 c -0.730469,-0.441406 -1.550781,-0.785156 -2.40625,-1 l -0.625,-3.5625 z M 13,6.46875 c 3.605469,0 6.53125,2.925781 6.53125,6.53125 0,3.605469 -2.925781,6.53125 -6.53125,6.53125 C 9.394531,19.53125 6.46875,16.601563 6.46875,13 6.46875,9.398438 9.394531,6.46875 13,6.46875 Z m 0,1.59375 c -2.71875,0 -4.9375,2.21875 -4.9375,4.9375 0,2.71875 2.21875,4.9375 4.9375,4.9375 2.71875,0 4.9375,-2.21875 4.9375,-4.9375 0,-2.71875 -2.21875,-4.9375 -4.9375,-4.9375 z m -0.03125,2.875 c 1.144531,0 2.09375,0.914063 2.09375,2.0625 0,1.144531 -0.949219,2.0625 -2.09375,2.0625 -1.144531,0 -2.0625,-0.917969 -2.0625,-2.0625 0,-1.148437 0.917969,-2.0625 2.0625,-2.0625 z"
       id="path864"
       inkscape:connector-curvature="0" />
  </g>
</svg>
